<svg width="1030" height="300" viewBox="0 0 1030 300" fill="none" xmlns="http://www.w3.org/2000/svg">
<g clip-path="url(#clip0_317_78)">
<g filter="url(#filter0_d_317_78)">
<path d="M704.2 123.6L679.4 263H661.2L686 123.6H704.2ZM798.419 232H737.419L720.819 263H701.619L776.419 124.4H797.419L823.219 263H804.019L798.419 232ZM795.819 217.8L783.019 146.6L745.019 217.8H795.819ZM954.784 263H936.584L883.184 152L863.384 263H845.184L869.984 123.4H888.184L941.784 234.2L961.384 123.4H979.584L954.784 263Z" fill="#28AC28"/>
</g>
<g filter="url(#filter1_d_317_78)">
<path d="M381.8 268H363.6L310.2 157L290.4 268H272.2L297 128.4H315.2L368.8 239.2L388.4 128.4H406.6L381.8 268ZM455.825 128.6L431.025 268H412.825L437.625 128.6H455.825Z" fill="black"/>
</g>
<g filter="url(#filter2_i_317_78)">
<path d="M496.1 249.35L489.933 257.222L490.006 257.279L490.079 257.334L496.1 249.35ZM475.45 197.9V187.9H466.777L465.551 196.486L475.45 197.9ZM506.95 197.9L516.931 198.511L517.581 187.9H506.95V197.9ZM517.45 227.3L524.726 220.44L524.726 220.44L517.45 227.3ZM597.6 178.3L589.76 184.507L589.903 184.688L590.054 184.862L597.6 178.3ZM580.8 164.65L575.839 173.332L576.02 173.436L576.206 173.532L580.8 164.65ZM553.85 152.4L550.136 161.685L550.185 161.704L550.235 161.724L553.85 152.4ZM519.9 136.65L514.861 145.288L514.912 145.318L514.964 145.347L519.9 136.65ZM498.55 116.7L490.336 122.404L490.336 122.404L498.55 116.7ZM490.5 84.85L500.493 85.2134L500.5 85.0318V84.85H490.5ZM501.35 48.8L493.115 43.1269L493.115 43.1269L501.35 48.8ZM531.1 24.65L535.161 33.7881L535.2 33.771L535.238 33.7536L531.1 24.65ZM615.8 23.95L611.551 33.0024L611.586 33.0188L611.621 33.0349L615.8 23.95ZM642.05 46.35L633.512 51.5561L633.512 51.5561L642.05 46.35ZM649.75 78.55V88.55H659.179L659.733 79.1372L649.75 78.55ZM616.5 78.55L606.529 77.783L605.701 88.55H616.5V78.55ZM612.3 61.05L603.507 65.8128L603.582 65.952L603.662 66.0887L612.3 61.05ZM597.6 47.4L592.878 56.2148L592.942 56.2489L593.006 56.2822L597.6 47.4ZM536.35 53L542.447 60.9262L542.461 60.9152L542.476 60.9041L536.35 53ZM529 100.95L521.125 107.113L521.274 107.303L521.432 107.486L529 100.95ZM545.45 114.25L540.489 122.932L540.607 123L540.728 123.065L545.45 114.25ZM572.4 126.85L568.461 136.041L568.48 136.05L568.499 136.058L572.4 126.85ZM606 143.3L600.889 151.895L601.025 151.976L601.163 152.052L606 143.3ZM628.4 163.25L620.293 169.105L620.293 169.105L628.4 163.25ZM627 231.15L635.321 236.697L635.349 236.655L635.376 236.613L627 231.15ZM596.9 256.35L601.111 265.42L601.177 265.389L601.243 265.358L596.9 256.35ZM551.4 255.45C530.347 255.45 514.2 250.474 502.121 241.366L490.079 257.334C506.467 269.692 527.186 275.45 551.4 275.45V255.45ZM502.267 241.478C490.752 232.458 485.1 220.81 485.1 205.6H465.1C465.1 226.79 473.448 244.309 489.933 257.222L502.267 241.478ZM485.1 205.6C485.1 202.171 485.223 200.202 485.349 199.314L465.551 196.486C465.211 198.865 465.1 202.029 465.1 205.6H485.1ZM475.45 207.9H506.95V187.9H475.45V207.9ZM496.969 197.289C496.104 211.415 500.535 223.937 510.174 234.16L524.726 220.44C518.965 214.329 516.396 207.251 516.931 198.511L496.969 197.289ZM510.174 234.16C520.435 245.043 535.342 249.55 552.8 249.55V229.55C538.525 229.55 529.865 225.89 524.726 220.44L510.174 234.16ZM552.8 249.55C570.127 249.55 585.122 245.597 596.726 236.604L584.474 220.796C577.411 226.27 567.207 229.55 552.8 229.55V249.55ZM596.726 236.604C608.787 227.257 614.6 214.031 614.6 198.25H594.6C594.6 208.602 591.08 215.676 584.474 220.796L596.726 236.604ZM614.6 198.25C614.6 188.204 611.581 179.138 605.146 171.738L590.054 184.862C592.953 188.195 594.6 192.43 594.6 198.25H614.6ZM605.44 172.093C600.069 165.308 593.335 159.875 585.394 155.768L576.206 173.532C581.798 176.425 586.264 180.092 589.76 184.507L605.44 172.093ZM585.761 155.968C578.613 151.883 569.113 147.593 557.465 143.076L550.235 161.724C561.454 166.074 569.92 169.951 575.839 173.332L585.761 155.968ZM557.564 143.115C543.793 137.607 532.93 132.547 524.836 127.953L514.964 145.347C524.137 150.553 535.908 155.993 550.136 161.685L557.564 143.115ZM524.939 128.012C517.863 123.885 511.809 118.262 506.764 110.996L490.336 122.404C496.957 131.938 505.137 139.615 514.861 145.288L524.939 128.012ZM506.764 110.996C502.45 104.784 500.085 96.4452 500.493 85.2134L480.507 84.4866C479.982 98.9214 482.984 111.816 490.336 122.404L506.764 110.996ZM500.5 84.85C500.5 73.2115 503.574 63.1995 509.585 54.473L493.115 43.1269C484.66 55.4005 480.5 69.4218 480.5 84.85H500.5ZM509.585 54.473C515.688 45.6138 524.103 38.7029 535.161 33.7881L527.039 15.5119C512.897 21.7971 501.479 30.9862 493.115 43.1269L509.585 54.473ZM535.238 33.7536C546.581 28.5976 559.719 25.9 574.85 25.9V5.89999C557.314 5.89999 541.285 9.03572 526.962 15.5463L535.238 33.7536ZM574.85 25.9C589.613 25.9 601.743 28.3984 611.551 33.0024L620.049 14.8976C606.991 8.76823 591.82 5.89999 574.85 5.89999V25.9ZM611.621 33.0349C621.753 37.6957 628.859 43.9256 633.512 51.5561L650.588 41.1439C643.574 29.6411 633.18 20.9376 619.979 14.8651L611.621 33.0349ZM633.512 51.5561C638.216 59.2701 640.356 67.9588 639.767 77.9628L659.733 79.1372C660.544 65.3411 657.551 52.5632 650.588 41.1439L633.512 51.5561ZM649.75 68.55H616.5V88.55H649.75V68.55ZM626.471 79.317C627.103 71.089 625.157 63.2449 620.938 56.0113L603.662 66.0887C605.976 70.055 606.83 73.8776 606.529 77.783L626.471 79.317ZM621.093 56.2872C616.93 48.6022 610.386 42.755 602.194 38.5178L593.006 56.2822C598.347 59.045 601.603 62.2978 603.507 65.8128L621.093 56.2872ZM602.322 38.5852C593.944 34.0969 584.036 32.15 573.1 32.15V52.15C581.764 52.15 588.189 53.7031 592.878 56.2148L602.322 38.5852ZM573.1 32.15C556.353 32.15 541.755 36.1594 530.224 45.0958L542.476 60.9041C549.611 55.3739 559.514 52.15 573.1 52.15V32.15ZM530.253 45.0737C518.481 54.1293 512.7 66.8555 512.7 82.05H532.7C532.7 72.5112 536.019 65.8706 542.447 60.9262L530.253 45.0737ZM512.7 82.05C512.7 91.3703 515.46 99.8747 521.125 107.113L536.875 94.7869C534.14 91.292 532.7 87.1963 532.7 82.05H512.7ZM521.432 107.486C526.683 113.566 533.078 118.698 540.489 122.932L550.411 105.568C544.755 102.336 540.184 98.6005 536.568 94.4138L521.432 107.486ZM540.728 123.065C547.63 126.762 556.913 131.093 568.461 136.041L576.339 117.659C565.02 112.807 556.337 108.738 550.172 105.435L540.728 123.065ZM568.499 136.058C582.029 141.791 592.783 147.075 600.889 151.895L611.111 134.705C601.951 129.258 590.304 123.576 576.301 117.642L568.499 136.058ZM601.163 152.052C608.71 156.223 615.069 161.872 620.293 169.105L636.507 157.395C629.597 147.828 621.024 140.177 610.837 134.548L601.163 152.052ZM620.293 169.105C624.883 175.46 627.5 183.789 627.5 194.75H647.5C647.5 180.511 644.05 167.84 636.507 157.395L620.293 169.105ZM627.5 194.75C627.5 206.458 624.503 216.672 618.624 225.687L635.376 236.613C643.497 224.161 647.5 210.109 647.5 194.75H627.5ZM618.68 225.603C612.813 234.403 604.257 241.701 592.557 247.342L601.243 265.358C615.676 258.399 627.187 248.897 635.321 236.697L618.68 225.603ZM592.689 247.28C581.177 252.625 567.497 255.45 551.4 255.45V275.45C569.837 275.45 586.489 272.209 601.111 265.42L592.689 247.28Z" fill="black"/>
</g>
<path d="M193.1 208.75L202.941 206.972L201.455 198.75H193.1V208.75ZM86.35 208.75V198.75H80.3614L77.5344 204.029L86.35 208.75ZM57.3 263V273H63.2886L66.1156 267.721L57.3 263ZM23.7 263L14.8998 258.251L6.93982 273H23.7V263ZM154.6 20.45V10.45H148.633L145.8 15.7007L154.6 20.45ZM191.35 20.45L201.181 18.62L199.66 10.45H191.35V20.45ZM236.5 263V273H248.533L246.331 261.17L236.5 263ZM202.9 263L193.059 264.778L194.545 273H202.9V263ZM188.55 183.9V193.9H200.508L198.392 182.131L188.55 183.9ZM166.15 59.3L175.992 57.5306L170.894 29.1726L157.328 54.5915L166.15 59.3ZM99.65 183.9L90.8278 179.192L82.9778 193.9H99.65V183.9ZM193.1 198.75H86.35V218.75H193.1V198.75ZM77.5344 204.029L48.4844 258.279L66.1156 267.721L95.1656 213.471L77.5344 204.029ZM57.3 253H23.7V273H57.3V253ZM32.5002 267.749L163.4 25.1993L145.8 15.7007L14.8998 258.251L32.5002 267.749ZM154.6 30.45H191.35V10.45H154.6V30.45ZM181.519 22.28L226.669 264.83L246.331 261.17L201.181 18.62L181.519 22.28ZM236.5 253H202.9V273H236.5V253ZM212.741 261.222L202.941 206.972L183.259 210.528L193.059 264.778L212.741 261.222ZM198.392 182.131L175.992 57.5306L156.308 61.0694L178.708 185.669L198.392 182.131ZM157.328 54.5915L90.8278 179.192L108.472 188.608L174.972 64.0084L157.328 54.5915ZM99.65 193.9H188.55V173.9H99.65V193.9Z" fill="black"/>
</g>
<defs>
<filter id="filter0_d_317_78" x="657.2" y="123.4" width="326.384" height="147.6" filterUnits="userSpaceOnUse" color-interpolation-filters="sRGB">
<feFlood flood-opacity="0" result="BackgroundImageFix"/>
<feColorMatrix in="SourceAlpha" type="matrix" values="0 0 0 0 0 0 0 0 0 0 0 0 0 0 0 0 0 0 127 0" result="hardAlpha"/>
<feOffset dy="4"/>
<feGaussianBlur stdDeviation="2"/>
<feComposite in2="hardAlpha" operator="out"/>
<feColorMatrix type="matrix" values="0 0 0 0 0 0 0 0 0 0 0 0 0 0 0 0 0 0 0.25 0"/>
<feBlend mode="normal" in2="BackgroundImageFix" result="effect1_dropShadow_317_78"/>
<feBlend mode="normal" in="SourceGraphic" in2="effect1_dropShadow_317_78" result="shape"/>
</filter>
<filter id="filter1_d_317_78" x="268.2" y="128.4" width="191.625" height="147.6" filterUnits="userSpaceOnUse" color-interpolation-filters="sRGB">
<feFlood flood-opacity="0" result="BackgroundImageFix"/>
<feColorMatrix in="SourceAlpha" type="matrix" values="0 0 0 0 0 0 0 0 0 0 0 0 0 0 0 0 0 0 127 0" result="hardAlpha"/>
<feOffset dy="4"/>
<feGaussianBlur stdDeviation="2"/>
<feComposite in2="hardAlpha" operator="out"/>
<feColorMatrix type="matrix" values="0 0 0 0 0 0 0 0 0 0 0 0 0 0 0 0 0 0 0.25 0"/>
<feBlend mode="normal" in2="BackgroundImageFix" result="effect1_dropShadow_317_78"/>
<feBlend mode="normal" in="SourceGraphic" in2="effect1_dropShadow_317_78" result="shape"/>
</filter>
<filter id="filter2_i_317_78" x="475.1" y="15.8999" width="175.7" height="253.55" filterUnits="userSpaceOnUse" color-interpolation-filters="sRGB">
<feFlood flood-opacity="0" result="BackgroundImageFix"/>
<feBlend mode="normal" in="SourceGraphic" in2="BackgroundImageFix" result="shape"/>
<feColorMatrix in="SourceAlpha" type="matrix" values="0 0 0 0 0 0 0 0 0 0 0 0 0 0 0 0 0 0 127 0" result="hardAlpha"/>
<feOffset dy="4"/>
<feGaussianBlur stdDeviation="2"/>
<feComposite in2="hardAlpha" operator="arithmetic" k2="-1" k3="1"/>
<feColorMatrix type="matrix" values="0 0 0 0 0 0 0 0 0 0 0 0 0 0 0 0 0 0 0.25 0"/>
<feBlend mode="normal" in2="shape" result="effect1_innerShadow_317_78"/>
</filter>
<clipPath id="clip0_317_78">
<rect width="1030" height="300" fill="white"/>
</clipPath>
</defs>
</svg>
